<svg width="121" height="29" viewBox="0 0 121 29" fill="none" xmlns="http://www.w3.org/2000/svg">
<path fill-rule="evenodd" clip-rule="evenodd" d="M34.1681 22.0291H39.6081V11.8897C39.6081 11.2057 39.5401 10.5066 39.4041 9.7924C39.2681 9.07821 39.0018 8.43445 38.6051 7.86108C38.2084 7.28772 37.6418 6.81495 36.9051 6.44277C36.1684 6.07058 35.1995 5.8845 33.9981 5.8845C32.7061 5.8845 31.5218 6.141 30.4451 6.65401C29.3684 7.16702 28.5014 7.89628 27.8441 8.84183V0H22.4041V22.0291H27.8441V12.9459C28.0028 12.5234 28.2294 12.1412 28.5241 11.7992C28.8188 11.4572 29.1418 11.1604 29.4931 10.9089C29.8444 10.6575 30.2071 10.4664 30.5811 10.3356C30.9551 10.2048 31.3008 10.1394 31.6181 10.1394C32.4114 10.1394 33.0348 10.3809 33.4881 10.8637C33.9414 11.3465 34.1681 12.1009 34.1681 13.127V22.0291ZM15.47 6.42769C15.878 6.64898 16.116 6.79987 16.184 6.88034L18.632 2.77628C18.088 2.49463 17.493 2.21298 16.847 1.93133C16.201 1.64968 15.504 1.3982 14.756 1.17691C14.008 0.955607 13.226 0.774548 12.41 0.633721C11.594 0.492895 10.7667 0.422483 9.928 0.422483C8.72666 0.422483 7.58767 0.573366 6.511 0.875136C5.43433 1.17691 4.488 1.62453 3.672 2.21801C2.856 2.81149 2.21 3.54076 1.734 4.40583C1.258 5.27091 1.02 6.26674 1.02 7.39335C1.02 8.19807 1.15033 8.90219 1.411 9.50573C1.67167 10.1093 2.06833 10.6424 2.601 11.1051C3.13367 11.5678 3.808 11.9752 4.624 12.3273C5.44 12.6793 6.40333 13.0062 7.514 13.308C7.84947 13.3965 8.17496 13.4818 8.49048 13.5639L10.192 14.0033C10.7602 14.1584 11.2616 14.324 11.696 14.5C12.2173 14.7112 12.6253 14.9476 12.92 15.2092C13.2147 15.4707 13.362 15.8026 13.362 16.205C13.362 17.2713 12.376 17.8044 10.404 17.8044C9.47466 17.8044 8.55667 17.6937 7.65 17.4724C6.74333 17.2511 5.92167 16.9997 5.185 16.718C4.44833 16.4364 3.83067 16.1547 3.332 15.8731C2.83333 15.5914 2.53867 15.4003 2.448 15.2997L0 19.615C0.70267 20.0375 1.46766 20.4096 2.295 20.7315C3.12234 21.0534 3.978 21.33 4.862 21.5614C5.746 21.7928 6.65266 21.9688 7.582 22.0895C8.51134 22.2102 9.418 22.2706 10.302 22.2706C11.458 22.2706 12.58 22.1549 13.668 21.9235C14.756 21.6922 15.7193 21.32 16.558 20.807C17.3967 20.294 18.071 19.62 18.581 18.7851C19.091 17.9502 19.346 16.9293 19.346 15.7222C19.346 14.7364 19.1703 13.8914 18.819 13.1873C18.4677 12.4832 17.969 11.8847 17.323 11.3918C16.677 10.8989 15.8893 10.4865 14.96 10.1545C14.0307 9.82259 12.988 9.51579 11.832 9.23414C11.5524 9.16708 11.2842 9.10225 11.0273 9.03966L9.622 8.69095C8.98733 8.53001 8.46034 8.35398 8.041 8.16286C7.62167 7.97174 7.30433 7.75547 7.089 7.51405C6.87367 7.27264 6.766 6.97087 6.766 6.60875C6.766 5.42178 7.76332 4.82831 9.758 4.82831C10.4833 4.82831 11.2087 4.91884 11.934 5.0999C12.6593 5.28096 13.328 5.4922 13.94 5.73362C14.552 5.97503 15.062 6.20639 15.47 6.42769ZM51.9483 22.3309C50.4296 22.3309 49.0753 22.1096 47.8853 21.667C46.6953 21.2244 45.6923 20.6259 44.8763 19.8715C44.0603 19.1171 43.4426 18.242 43.0233 17.2461C42.604 16.2503 42.3943 15.2092 42.3943 14.1228C42.3943 13.0364 42.604 11.9953 43.0233 10.9995C43.4426 10.0037 44.0603 9.12854 44.8763 8.37411C45.6923 7.61969 46.6953 7.01615 47.8853 6.5635C49.0753 6.11084 50.4296 5.88452 51.9483 5.88452C53.467 5.88452 54.8156 6.11084 55.9943 6.5635C57.173 7.01615 58.1703 7.61969 58.9863 8.37411C59.8023 9.12854 60.4256 10.0037 60.8563 10.9995C61.287 11.9953 61.5023 13.0364 61.5023 14.1228C61.5023 15.2092 61.2926 16.2503 60.8733 17.2461C60.454 18.242 59.8363 19.1171 59.0203 19.8715C58.2043 20.6259 57.2013 21.2244 56.0113 21.667C54.8213 22.1096 53.467 22.3309 51.9483 22.3309ZM49.0922 17.1254C48.3442 16.371 47.9702 15.3701 47.9702 14.1228C47.9702 13.5193 48.0722 12.961 48.2762 12.448C48.4802 11.935 48.7579 11.4974 49.1092 11.1353C49.4605 10.7732 49.8799 10.4915 50.3672 10.2903C50.8545 10.0892 51.3815 9.98857 51.9482 9.98857C53.0816 9.98857 54.0222 10.3658 54.7702 11.1202C55.5182 11.8746 55.8922 12.8755 55.8922 14.1228C55.8922 14.7263 55.7902 15.2846 55.5862 15.7976C55.3822 16.3106 55.1045 16.7482 54.7532 17.1103C54.4019 17.4724 53.9882 17.7541 53.5122 17.9553C53.0362 18.1565 52.5149 18.257 51.9482 18.257C50.7922 18.257 49.8402 17.8798 49.0922 17.1254ZM75.7463 10.3205C74.4316 10.3406 73.2417 10.5318 72.1763 10.8939C71.111 11.256 70.3403 11.7992 69.8643 12.5234V22.0292H64.4243V6.18628H69.4223V9.38503C70.0343 8.31878 70.822 7.48389 71.7853 6.88035C72.7487 6.27681 73.7743 5.96498 74.8623 5.94487H75.4063C75.5197 5.94487 75.633 5.95493 75.7463 5.97504V10.3205ZM87.2535 21.9688C88.2168 21.7274 89.0725 21.4658 89.8205 21.1842L88.7665 17.3517C88.4492 17.4925 88.0752 17.6233 87.6445 17.744C87.2138 17.8647 86.7945 17.9251 86.3865 17.9251C85.9332 17.9251 85.5592 17.8094 85.2645 17.578C84.9698 17.3467 84.8225 16.9695 84.8225 16.4464V9.83767H88.4605V6.18627H84.8225V1.14673H79.3825V6.18627H77.1045V9.83767H79.3825V18.1061C79.3825 18.8706 79.5128 19.5245 79.7735 20.0676C80.0342 20.6108 80.3912 21.0484 80.8445 21.3803C81.2978 21.7123 81.8248 21.9537 82.4255 22.1046C83.0262 22.2555 83.6665 22.3309 84.3465 22.3309C85.3212 22.3309 86.2902 22.2102 87.2535 21.9688ZM92.0966 0H97.5366V16.3861C97.5366 17.5931 98.1146 18.1967 99.2706 18.1967C99.5426 18.1967 99.8429 18.1615 100.172 18.091C100.5 18.0206 100.801 17.915 101.073 17.7742L101.787 21.3954C101.107 21.6771 100.325 21.8984 99.4406 22.0593C98.5566 22.2203 97.7292 22.3007 96.9586 22.3007C95.3945 22.3007 94.1932 21.9386 93.3546 21.2144C92.5159 20.4901 92.0966 19.444 92.0966 18.076V0ZM104.828 24.7149C104.431 24.6545 104.006 24.554 103.553 24.4131V28.5474C104.029 28.7083 104.499 28.824 104.964 28.8944C105.428 28.9648 105.887 29 106.341 29C108.018 29 109.469 28.5926 110.693 27.7779C111.917 26.9631 112.767 25.9019 113.243 24.5942L120.043 6.18628H114.943L111.373 17.8949L107.225 6.18628H101.615L108.415 22.0292C108.12 23.0753 107.791 23.7995 107.429 24.2019C107.066 24.6042 106.556 24.8054 105.899 24.8054C105.581 24.8054 105.224 24.7752 104.828 24.7149Z" fill="white"/>
</svg>
