<svg width="210" height="27" viewBox="0 0 210 27" fill="none" xmlns="http://www.w3.org/2000/svg">
<path d="M19.6875 16.0124H5.72248V12.5474H23.73C23.2575 11.0774 21.735 9.7124 19.0575 9.7124H5.98498C2.99248 9.7124 1.25998 10.8149 1.25998 13.2299V15.8024C1.25998 17.9024 3.04498 19.1099 5.66998 19.1099H19.7925V22.7849H0.787476C1.25998 24.7799 2.78248 25.8299 5.51248 25.8299H19.74C22.7325 25.8299 24.2025 24.6749 24.2025 22.2074V19.6349C24.2025 17.3774 22.47 16.1699 19.6875 16.0124Z" fill="white"/>
<path d="M48.195 9.76489H30.975V25.8824H35.8575V19.6874H48.5625C52.08 19.6874 54.0225 18.4799 54.0225 15.6449V13.8599C53.97 11.2349 51.765 9.76489 48.195 9.76489ZM49.77 14.9099C49.77 16.0649 49.56 16.6949 47.67 16.6949H35.8575L35.91 12.4949H47.46C49.56 12.4949 49.8225 13.1249 49.8225 14.2274V14.9099H49.77Z" fill="white"/>
<path d="M68.1975 9.08252L65.2575 12.705L70.245 19.5825H59.85L57.2775 22.3125H72.2925L74.865 25.8825H80.64L68.1975 9.08252Z" fill="white"/>
<path d="M89.985 12.5474H108.255C107.783 10.6574 105.945 9.7124 103.32 9.7124H89.6701C87.3076 9.7124 85.05 10.6574 85.05 13.2299V22.2599C85.05 24.8324 87.3076 25.7774 89.6701 25.7774H103.478C106.628 25.7774 107.73 24.8849 108.255 22.7324H89.985V12.5474Z" fill="white"/>
<path d="M119.857 22.8374V17.9024H129.675V15.1724H114.922V25.8824H136.71V22.8374H119.857Z" fill="white"/>
<path d="M137.445 9.76489H115.448V12.5999H137.445V9.76489Z" fill="white"/>
<path d="M150.99 9.76489H143.325L152.355 16.3799C153.667 15.4874 155.19 14.5424 156.555 13.7549L150.99 9.76489Z" fill="white"/>
<path d="M162.12 18.0073C160.807 18.8998 159.495 19.8973 158.235 20.8423L165.06 25.8298H172.777L162.12 18.0073Z" fill="white"/>
<path d="M209.475 0.367432C167.475 2.78243 148.05 20.7374 143.693 24.9899L142.8 25.8299H150.57C171.57 4.77743 201.758 1.04993 209.475 0.367432Z" fill="white"/>
</svg>
